<?xml version="1.0" encoding="UTF-8" ?>
<svg version="1.1" width="15" height="15" xmlns="http://www.w3.org/2000/svg" shape-rendering="crispEdges">
<rect x="8" y="3" width="1" height="1" fill="#1e89dd" />
<rect x="9" y="3" width="1" height="1" fill="#1e89dd" />
<rect x="10" y="3" width="1" height="1" fill="#1e89dd" />
<rect x="2" y="4" width="1" height="1" fill="#1e89dd" />
<rect x="3" y="4" width="1" height="1" fill="#1e89dd" />
<rect x="7" y="4" width="1" height="1" fill="#1e89dd" />
<rect x="8" y="4" width="1" height="1" fill="#1e89dd" />
<rect x="9" y="4" width="1" height="1" fill="#1e89dd" />
<rect x="10" y="4" width="1" height="1" fill="#1e89dd" />
<rect x="11" y="4" width="1" height="1" fill="#1e89dd" />
<rect x="12" y="4" width="1" height="1" fill="#1e89dd" />
<rect x="2" y="5" width="1" height="1" fill="#1e89dd" />
<rect x="3" y="5" width="1" height="1" fill="#1e89dd" />
<rect x="4" y="5" width="1" height="1" fill="#1e89dd" />
<rect x="5" y="5" width="1" height="1" fill="#1e89dd" />
<rect x="7" y="5" width="1" height="1" fill="#1e89dd" />
<rect x="8" y="5" width="1" height="1" fill="#1e89dd" />
<rect x="9" y="5" width="1" height="1" fill="#1e89dd" />
<rect x="10" y="5" width="1" height="1" fill="#1e89dd" />
<rect x="11" y="5" width="1" height="1" fill="#1e89dd" />
<rect x="3" y="6" width="1" height="1" fill="#1e89dd" />
<rect x="4" y="6" width="1" height="1" fill="#1e89dd" />
<rect x="5" y="6" width="1" height="1" fill="#1e89dd" />
<rect x="6" y="6" width="1" height="1" fill="#1e89dd" />
<rect x="7" y="6" width="1" height="1" fill="#1e89dd" />
<rect x="8" y="6" width="1" height="1" fill="#1e89dd" />
<rect x="9" y="6" width="1" height="1" fill="#1e89dd" />
<rect x="10" y="6" width="1" height="1" fill="#1e89dd" />
<rect x="4" y="7" width="1" height="1" fill="#1e89dd" />
<rect x="5" y="7" width="1" height="1" fill="#1e89dd" />
<rect x="6" y="7" width="1" height="1" fill="#1e89dd" />
<rect x="7" y="7" width="1" height="1" fill="#1e89dd" />
<rect x="8" y="7" width="1" height="1" fill="#1e89dd" />
<rect x="9" y="7" width="1" height="1" fill="#1e89dd" />
<rect x="10" y="7" width="1" height="1" fill="#1e89dd" />
<rect x="5" y="8" width="1" height="1" fill="#1e89dd" />
<rect x="6" y="8" width="1" height="1" fill="#1e89dd" />
<rect x="7" y="8" width="1" height="1" fill="#1e89dd" />
<rect x="8" y="8" width="1" height="1" fill="#1e89dd" />
<rect x="9" y="8" width="1" height="1" fill="#1e89dd" />
<rect x="10" y="8" width="1" height="1" fill="#1e89dd" />
<rect x="5" y="9" width="1" height="1" fill="#1e89dd" />
<rect x="6" y="9" width="1" height="1" fill="#1e89dd" />
<rect x="7" y="9" width="1" height="1" fill="#1e89dd" />
<rect x="8" y="9" width="1" height="1" fill="#1e89dd" />
<rect x="9" y="9" width="1" height="1" fill="#1e89dd" />
<rect x="4" y="10" width="1" height="1" fill="#1e89dd" />
<rect x="5" y="10" width="1" height="1" fill="#1e89dd" />
<rect x="6" y="10" width="1" height="1" fill="#1e89dd" />
<rect x="7" y="10" width="1" height="1" fill="#1e89dd" />
<rect x="8" y="10" width="1" height="1" fill="#1e89dd" />
<rect x="3" y="11" width="1" height="1" fill="#1e89dd" />
<rect x="4" y="11" width="1" height="1" fill="#1e89dd" />
<rect x="5" y="11" width="1" height="1" fill="#1e89dd" />
<rect x="6" y="11" width="1" height="1" fill="#1e89dd" />
<rect x="7" y="11" width="1" height="1" fill="#1e89dd" />
</svg>